<svg width="120" height="80" viewBox="0 0 120 80" xmlns="http://www.w3.org/2000/svg">
  <defs>
    <linearGradient id="carGradient" x1="0%" y1="0%" x2="100%" y2="100%">
      <stop offset="0%" style="stop-color:#4F46E5;stop-opacity:1" />
      <stop offset="100%" style="stop-color:#6366F1;stop-opacity:1" />
    </linearGradient>
    <linearGradient id="batteryGradient" x1="0%" y1="0%" x2="100%" y2="0%">
      <stop offset="0%" style="stop-color:#10B981;stop-opacity:1" />
      <stop offset="100%" style="stop-color:#34D399;stop-opacity:1" />
    </linearGradient>
  </defs>
  
  <!-- Car Body -->
  <rect x="20" y="35" width="70" height="25" rx="12" fill="url(#carGradient)" stroke="#4338CA" stroke-width="1"/>
  
  <!-- Car Windows -->
  <rect x="25" y="20" width="60" height="20" rx="8" fill="#E5E7EB" stroke="#9CA3AF" stroke-width="1"/>
  
  <!-- Car Wheels -->
  <circle cx="35" cy="65" r="8" fill="#374151" stroke="#1F2937" stroke-width="2"/>
  <circle cx="75" cy="65" r="8" fill="#374151" stroke="#1F2937" stroke-width="2"/>
  <circle cx="35" cy="65" r="4" fill="#6B7280"/>
  <circle cx="75" cy="65" r="4" fill="#6B7280"/>
  
  <!-- Electric Symbol -->
  <polygon points="50,40 58,48 54,48 60,55 52,47 56,47 50,40" fill="#FBBF24" stroke="#F59E0B" stroke-width="1"/>
  
  <!-- Battery Indicator -->
  <rect x="95" y="25" width="20" height="12" rx="2" fill="none" stroke="#10B981" stroke-width="2"/>
  <rect x="115" y="29" width="3" height="4" fill="#10B981"/>
  
  <!-- Battery Fill Animation -->
  <rect x="97" y="27" width="0" height="8" rx="1" fill="url(#batteryGradient)">
    <animate attributeName="width" values="0;16;0" dur="2s" repeatCount="indefinite"/>
  </rect>
  
  <!-- Charging Cables -->
  <path d="M90 45 Q95 35 98 31" stroke="#10B981" stroke-width="3" fill="none" stroke-linecap="round"/>
  
  <!-- Movement Animation -->
  <g>
    <animateTransform attributeName="transform" type="translate" values="0 0; 5 0; 0 0" dur="3s" repeatCount="indefinite"/>
    
    <!-- Speed Lines -->
    <line x1="10" y1="25" x2="5" y2="25" stroke="#9CA3AF" stroke-width="2" opacity="0.6">
      <animate attributeName="opacity" values="0;1;0" dur="1s" repeatCount="indefinite"/>
    </line>
    <line x1="15" y1="35" x2="8" y2="35" stroke="#9CA3AF" stroke-width="2" opacity="0.4">
      <animate attributeName="opacity" values="0;1;0" dur="1.2s" repeatCount="indefinite"/>
    </line>
    <line x1="12" y1="45" x2="6" y2="45" stroke="#9CA3AF" stroke-width="2" opacity="0.8">
      <animate attributeName="opacity" values="0;1;0" dur="0.8s" repeatCount="indefinite"/>
    </line>
  </g>
</svg>